<?xml version="1.0" encoding="utf-8"?>
<!-- Generator: Adobe Illustrator 27.5.0, SVG Export Plug-In . SVG Version: 6.00 Build 0)  -->
<svg version="1.1" id="Capa_1" xmlns="http://www.w3.org/2000/svg" xmlns:xlink="http://www.w3.org/1999/xlink" x="0px" y="0px"
	 viewBox="0 0 2122 2122" style="enable-background:new 0 0 2122 2122;" xml:space="preserve">
<g>
	<path style="fill:#EB672F;" d="M1306.392,1026.551c-44.682,41.267-92.473,80.18-143.547,110.104
		c3.625,20.244,7.138,40.507,10.465,60.804c76.166-48.468,148.024-104.755,211.074-168.994
		C1358.786,1032.578,1331.239,1033.274,1306.392,1026.551z"/>
	<path style="fill:#EB672F;" d="M1118.884,1135.023c-43.206-0.785-87.298-8.595-129.169-17.915
		c-46.436,43.236-124.171,74.865-186.392,73.949c-5.32-0.083-6.29-7.693-1.242-9.179c33.685-9.9,67.503-16.575,99.776-31.094
		c23.83-10.728,45.062-24.731,66.709-38.592c-50.49-12.088-100.258-27.318-148.809-45.681
		c-15.722-5.948-31.318-12.229-46.806-18.777c-39.24,9.73-80.702,15.537-121.023,17.958c-40.653,2.441-84.521,3.601-123.6-8.896
		c-6.86-2.193-5.301-11.781,1.656-12.234c38.904-2.519,78.129,2.13,117.252,0.195c31.337-1.554,61.515-5.876,91.771-11.946
		c-23.03-10.529-45.759-21.71-68.102-33.603c-25.447-13.54-50.431-27.961-74.869-43.249c-20.146-12.609-46.314-24.643-59.279-45.096
		c-4.872-7.688,3.172-16.404,11.225-14.606c24.726,5.53,47.625,27.508,69.116,40.804c22.06,13.651,44.56,26.596,67.43,38.84
		c48.545,25.993,98.811,48.736,150.402,67.976c51.357,19.147,103.834,34.997,157.208,47.464
		c40.853,9.545,82.465,16.161,123.435,25.14c-2.085-11.454-4.19-22.904-6.353-34.339c-18.987-100.487-41.35-200.375-67.781-299.176
		c-12.063-45.096-24.535-90.105-38.114-134.772c-4.867-16-10.08-31.878-15.206-47.771c-61.71-23.162-120.37-87.449-134.246-150.499
		c-0.682-3.089,3.313-4.741,5.033-2.119c18.88,28.765,36.112,59.303,59.449,84.809c19.654,21.476,42.572,38.207,65.72,55.177
		c-6.572-20.76-12.784-41.613-17.627-62.889c-3.289-14.451,17.096-24.117,24.521-10.334c23.196,43.069,37.778,90.09,52.964,136.477
		c14.017,42.806,26.851,85.929,38.772,129.34c12.59-26.134,24.97-52.263,34.392-79.839c10.772-31.537,13.705-66.548,25.861-97.203
		c1.476-3.707,6.407-3.04,6.825,0.926c3.532,33.623-10.294,72.614-21.121,104.005c-10.553,30.611-23.79,60.619-41.749,87.61
		c1.033,3.835,2.114,7.654,3.128,11.493c27.562,104.098,50.953,209.34,70.305,315.327c22.047-18.46,44.975-35.888,67.596-53.705
		c-25.452-30.475-29.666-91.634-19.956-126.607c2.709-9.763,18.377-7.961,17.88,2.422c-1.086,22.577-3.605,43.596,0.395,66.192
		c2.929,16.511,10.461,31.737,14.729,47.61c7.99-6.421,15.922-12.916,23.707-19.59c34.47-29.559,67.635-60.624,99.44-93.033
		c32.799-33.427,64.141-68.277,93.856-104.477c16.619-20.249,32.784-40.882,48.395-61.919c10.772-14.519,19.605-31.109,35.225-40.78
		c3.396-2.1,7.041,1.365,6.339,4.867c-4.463,22.198-22.996,40.858-36.351,58.553c-6.568,8.706-13.232,17.335-19.986,25.9
		c16.132-3.021,32.161-6.519,48.005-10.714l0.405-0.76c39.361-75.932,65.388-158.378,78.075-242.894
		c-41.432-11.23-79.108-34.071-102.377-69.642c-4.75,62.363-30.967,122.923-73.169,169.033
		c-13.491,14.719-29.359,28.477-48.794,33.077c-43.274,10.197-81.91-27.138-110.733-60.979
		c11.693,76.541-11.381,152.512-44.078,223.956c-7.781-14.909-11.922-32.541-15.371-55.883
		c-14.831-100.653,3.22-206.636,49.062-297.281c-53.505,30.587-125.067,3.103-163.78-44.848
		c-38.675-47.912-52.623-110.655-65.388-170.908c-10.656,19.586-37.062,26.139-58.607,20.277
		c-21.54-5.866-39.016-21.31-54.767-37.106c-48.565-48.755-88.619-105.939-117.866-168.224
		c15.946,61.632,31.698,124.648,26.986,188.156c-4.716,63.474-33.5,128.594-88.311,161.022c36.18,30.894,73.169,62.821,95.4,104.867
		c22.232,42.046,26.563,97.125-2.031,135.108c40.361,14.719,69.949,50.865,86.699,90.422
		c16.711,39.556,22.309,82.791,27.752,125.373c1.613,12.765,3.065,26.027,3.678,39.289
		c-66.231-57.305-127.171-123.61-148.409-207.478c-13.379,42.392-34.417,91.839-78.265,99.274
		c-19.664,3.332-39.674-3.143-57.803-11.459c-56.843-26.066-104.56-71.639-133.193-127.215
		c-11.459,63.206-64.584,112.419-123.956,136.989c-59.371,24.531-124.916,28.594-189.038,32.35
		c62.017,25.067,122.845,56.765,169.067,105.096c46.227,48.297,76.239,115.6,67.269,181.832
		c38.865-17.398,78.46-35.069,120.736-40.088c42.276-5.062,88.463,4.365,118.397,34.645c29.939,30.28,37.257,83.941,8.662,115.527
		c48.297-24.994,102.684-38.022,157.038-37.603c44.384,0.307,98.085,20.239,108.662,60.141
		c51.849-24.205,102.616-50.538,151.951-79.678C1128.91,1192.831,1124.029,1163.9,1118.884,1135.023z"/>
	<path style="fill:#EB672F;" d="M1477.48,845.66c-2.29,2.821-4.536,5.685-6.85,8.492c-29.807,36.107-61.208,70.914-94.134,104.2
		c-18.894,19.104-38.436,38.47-58.611,57.486c26.046,1.676,51.133,2.69,77.681-3.254c1.778-0.4,3.532-0.892,5.301-1.33
		c48.726-52.054,91.649-109.121,126.523-171.279c-14.348,3.367-28.881,6.027-43.625,7.917
		C1481.091,848.237,1478.981,847.272,1477.48,845.66z"/>
	<path style="fill:#F08245;" d="M1097.251,1379.71c-27.517,35.751-56.867,70.168-88.769,102.075
		c1.047,32.185-4.527,63.454-12.166,95.045c-6.967,28.804-13.778,71.761-34.996,93.618c-4.779,4.926-13.184,1.121-13.291-5.505
		c-0.263-16.229,7.474-30.577,12.399-45.924c5.111-15.951,9.544-32.083,13.525-48.351c5.642-23.079,9.676-46.407,14.446-69.583
		c-34.86,32.711-71.932,63.089-110.928,90.743c-21.744,15.42-44.239,29.608-66.782,43.805c-18.743,11.805-39.63,28.506-62.173,30.26
		c-9.476,0.74-12.161-11.142-7.113-17.174c14.197-16.97,41.213-25.472,60.307-36.361c21.934-12.506,43.04-26.67,63.678-41.198
		c40.551-28.536,78.904-60.151,114.806-94.348c12.75-12.141,25.267-24.531,37.5-37.179c-27.035,5.691-54.406,9.998-81.232,16.741
		c-31.932,8.029-64.901,24.346-97.89,25.822c-3.951,0.175-6.611-5.54-3.386-8.18c25.817-21.165,64.424-28.472,96.073-36.511
		c33.656-8.546,68.979-16.239,103.917-16.395c15.688-17.004,30.826-34.504,45.208-52.658c22.412-28.277,41.978-58.363,62.041-88.151
		c-2.831-19.518-5.812-39.011-8.906-58.489c-49.335,29.14-100.102,55.474-151.951,79.678c1.189,4.521,1.842,9.311,1.842,14.333
		c0.112,44-48.755,70.68-91.8,79.683c-47.722,10.007-97.393,10.621-145.344,1.881c-5.939,2.183-11.883,4.331-17.822,6.441
		c14.066,40.663,7.089,88.346-18.782,122.879c-28.327,37.754-77.997,58.222-124.687,51.362
		c84.175,59.181,101.266,193.792,34.577,272.136c49.174-35.454,101.569-68.492,160.214-83.785
		c58.641-15.332,124.95-10.923,174.548,23.956c12.765-31.43,26.217-63.859,50.709-87.313c24.531-23.459,63.362-35.532,93.14-19.279
		c-12.439-87.181,27.976-154.158,66.621-219.62c-4.98-51.401-11.06-102.699-18.105-153.871
		C1131.415,1334.39,1114.357,1357.483,1097.251,1379.71z"/>
	<path style="fill:#F08245;" d="M1815.497,1317.045c-40.326,24.497-94.061,24.955-134.845,1.189
		c-40.741-23.761-66.846-70.752-65.389-117.9c-45.189,33.69-97.968,57.072-153.276,67.922c-43.162,8.434-98.587,2.875-115.6-37.681
		c-19.128-45.608,27.44-92.063,72.823-111.649c49.905-21.545,105.096-30.704,159.294-26.451
		c-38.636-17.973-52.775-70.255-36.984-109.812c15.829-39.518,54.655-66.192,95.551-77.997
		c40.936-11.805,84.287-10.962,126.831-10.041c-34.037-57.535-32.58-131.201-8.814-193.681
		c23.766-62.514,67.498-115.405,114.875-162.63c-60.56,21.505-122.499,43.274-186.743,43.776c-21.73,0.151-43.922-2.534-65.12-8.322
		c-12.687,84.516-38.714,166.962-78.075,242.894l-0.405,0.76c14.071-3.727,28.005-7.99,41.705-13.038
		c18.168-6.694,36.102-14.187,53.588-22.514c13.281-6.324,25.691-15.045,40.083-18.246c2.187-0.487,4.887,2.07,3.245,4.224
		c-18.534,24.37-56.273,39.532-84.083,50.826c-21.807,8.858-44.053,15.98-66.767,21.301
		c-34.874,62.158-77.797,119.225-126.523,171.279c14.534-3.596,28.779-8.468,42.304-14.914
		c12.594-6.002,23.411-15.059,37.004-18.358c3.415-0.833,7.113,3.079,4.867,6.334c-16.502,23.887-58.875,35.6-85.861,41.388
		c-4.828,1.038-9.778,1.954-14.797,2.762c-63.05,64.238-134.908,120.526-211.074,168.994c2.168,13.228,4.273,26.47,6.319,39.722
		c0.619,0.195,1.242,0.439,1.875,0.785c41.846,22.679,79.177,54.095,119.688,79.215c36.166,22.426,73.369,43.035,111.751,61.398
		c36.589-0.95,72.769,2.909,109.754-3.035c21.194-3.405,42.095-8.214,62.528-14.806c16.551-5.34,32.414-13.486,49.827-15.035
		c3.869-0.346,5.174,4.702,2.967,7.157c-26.811,29.812-84.204,40.541-122.129,46.076c-14.971,2.183-30.893,3.995-46.938,4.541
		c28.117,11.478,56.731,21.754,85.725,30.821c22.913,7.167,46.046,13.769,69.334,19.63c17.827,4.482,39.216,5.442,52.502,18.938
		c5.691,5.773,2.27,13.641-4.331,16.414c-19.396,8.141-45.018-2.465-64.711-7.255c-23.362-5.681-46.451-12.268-69.311-19.713
		c-44.098-14.363-87.303-31.557-129.301-51.23c5.949,9.817,11.664,19.581,17.603,28.17c15.747,22.792,44.814,49.783,48.97,77.642
		c0.74,4.95-3.464,8.238-8.093,6.221c-25.33-11.025-42.719-46.689-57.807-68.721c-12.931-18.884-31.084-40.77-41.36-63.386
		c-30.675-15.878-60.633-33.189-89.461-52.16c-32.468-21.374-67.342-44.341-94.738-72.804
		c7.147,48.521,13.447,97.154,18.933,145.871c69.827,55.147,154.275,100.984,180.999,202.26
		c21.121-26.563,61.598-30.587,93.296-18.514c31.698,12.073,56.687,36.721,80.682,60.716c32.122-51.44,91.493-81.335,151.479-90.037
		c59.986-8.702,121.121,1.301,180.219,14.83C1797.631,1534.95,1761.027,1404.324,1815.497,1317.045z"/>
	<path style="fill:#923D26;" d="M1278.713,1338.848c28.828,18.972,58.787,36.282,89.461,52.16
		c10.275,22.616,28.429,44.502,41.36,63.386c15.089,22.031,32.478,57.696,57.807,68.721c4.628,2.017,8.833-1.272,8.093-6.221
		c-4.156-27.859-33.223-54.85-48.97-77.642c-5.939-8.589-11.654-18.354-17.603-28.17c41.998,19.673,85.203,36.867,129.301,51.23
		c22.86,7.445,45.949,14.032,69.311,19.713c19.693,4.789,45.315,15.396,64.711,7.255c6.601-2.772,10.022-10.641,4.331-16.414
		c-13.286-13.496-34.675-14.456-52.502-18.938c-23.288-5.861-46.421-12.463-69.334-19.63c-28.994-9.067-57.608-19.342-85.725-30.821
		c16.044-0.546,31.966-2.358,46.938-4.541c37.925-5.535,95.318-16.263,122.129-46.076c2.207-2.455,0.901-7.503-2.967-7.157
		c-17.413,1.549-33.276,9.695-49.827,15.035c-20.434,6.592-41.335,11.401-62.528,14.806c-36.984,5.944-73.164,2.085-109.754,3.035
		c-38.383-18.363-75.586-38.972-111.751-61.398c-40.511-25.121-77.842-56.536-119.688-79.215c-0.633-0.346-1.257-0.59-1.875-0.785
		c-2.047-13.252-4.151-26.494-6.319-39.722c-3.328-20.297-6.84-40.56-10.465-60.804c51.074-29.924,98.865-68.838,143.547-110.104
		c24.847,6.723,52.394,6.027,77.992,1.915c5.018-0.809,9.968-1.725,14.797-2.762c26.987-5.788,69.359-17.501,85.861-41.388
		c2.245-3.255-1.452-7.167-4.867-6.334c-13.593,3.299-24.409,12.356-37.004,18.358c-13.525,6.446-27.771,11.318-42.304,14.914
		c-1.769,0.438-3.523,0.93-5.301,1.33c-26.548,5.944-51.634,4.931-77.681,3.254c20.175-19.016,39.717-38.382,58.611-57.486
		c32.926-33.286,64.327-68.093,94.134-104.2c2.314-2.806,4.56-5.671,6.85-8.492c1.501,1.612,3.611,2.577,6.285,2.231
		c14.743-1.89,29.276-4.551,43.625-7.917c22.714-5.32,44.96-12.443,66.767-21.301c27.81-11.294,65.549-26.456,84.083-50.826
		c1.642-2.154-1.058-4.712-3.245-4.224c-14.392,3.201-26.802,11.922-40.083,18.246c-17.486,8.327-35.42,15.82-53.588,22.514
		c-13.7,5.047-27.635,9.311-41.705,13.038c-15.844,4.195-31.873,7.693-48.005,10.714c6.753-8.565,13.418-17.194,19.986-25.9
		c13.355-17.695,31.888-36.356,36.351-58.553c0.702-3.503-2.943-6.967-6.339-4.867c-15.62,9.671-24.453,26.261-35.225,40.78
		c-15.61,21.038-31.776,41.671-48.395,61.919c-29.715,36.2-61.057,71.05-93.856,104.477c-31.805,32.409-64.97,63.474-99.44,93.033
		c-7.785,6.675-15.717,13.169-23.707,19.59c-4.268-15.873-11.8-31.099-14.729-47.61c-4-22.597-1.481-43.615-0.395-66.192
		c0.497-10.383-15.172-12.185-17.88-2.422c-9.71,34.972-5.496,96.132,19.956,126.607c-22.621,17.817-45.549,35.245-67.596,53.705
		c-19.352-105.987-42.743-211.23-70.305-315.327c-1.013-3.839-2.095-7.659-3.128-11.493c17.958-26.991,31.196-56.999,41.749-87.61
		c10.826-31.391,24.653-70.382,21.121-104.005c-0.419-3.966-5.349-4.633-6.825-0.926c-12.156,30.656-15.089,65.667-25.861,97.203
		c-9.423,27.576-21.803,53.705-34.392,79.839c-11.922-43.411-24.755-86.533-38.772-129.34
		c-15.186-46.387-29.768-93.408-52.964-136.477c-7.425-13.783-27.81-4.117-24.521,10.334c4.843,21.276,11.055,42.129,17.627,62.889
		c-23.148-16.97-46.066-33.7-65.72-55.177c-23.337-25.505-40.57-56.044-59.449-84.809c-1.72-2.621-5.715-0.97-5.033,2.119
		c13.876,63.05,72.536,127.337,134.246,150.499c5.126,15.892,10.339,31.771,15.206,47.771
		c13.579,44.667,26.051,89.676,38.114,134.772c26.431,98.801,48.794,198.689,67.781,299.176c2.163,11.434,4.268,22.884,6.353,34.339
		c-40.969-8.979-82.582-15.596-123.435-25.14c-53.374-12.468-105.851-28.317-157.208-47.464
		c-51.591-19.24-101.857-41.983-150.402-67.976c-22.87-12.244-45.369-25.189-67.43-38.84c-21.491-13.296-44.39-35.274-69.116-40.804
		c-8.053-1.798-16.097,6.918-11.225,14.606c12.965,20.453,39.133,32.487,59.279,45.096c24.438,15.288,49.422,29.71,74.869,43.249
		c22.343,11.893,45.072,23.074,68.102,33.603c-30.256,6.071-60.434,10.392-91.771,11.946c-39.123,1.934-78.348-2.714-117.252-0.195
		c-6.957,0.453-8.516,10.042-1.656,12.234c39.079,12.497,82.948,11.337,123.6,8.896c40.321-2.422,81.783-8.229,121.023-17.958
		c15.488,6.548,31.084,12.828,46.806,18.777c48.551,18.363,98.319,33.593,148.809,45.681
		c-21.647,13.861-42.879,27.864-66.709,38.592c-32.273,14.519-66.09,21.194-99.776,31.094c-5.047,1.486-4.078,9.096,1.242,9.179
		c62.222,0.916,139.956-30.713,186.392-73.949c41.871,9.321,85.963,17.13,129.169,17.915c5.145,28.877,10.026,57.807,14.636,86.787
		c3.094,19.479,6.075,38.972,8.906,58.489c-20.063,29.788-39.629,59.873-62.041,88.151c-14.382,18.154-29.52,35.654-45.208,52.658
		c-34.938,0.156-70.261,7.849-103.917,16.395c-31.649,8.039-70.256,15.347-96.073,36.511c-3.225,2.641-0.565,8.356,3.386,8.18
		c32.989-1.476,65.958-17.793,97.89-25.822c26.826-6.743,54.197-11.05,81.232-16.741c-12.234,12.648-24.75,25.038-37.5,37.179
		c-35.902,34.197-74.255,65.812-114.806,94.348c-20.638,14.529-41.744,28.692-63.678,41.198
		c-19.094,10.889-46.11,19.391-60.307,36.361c-5.048,6.032-2.363,17.915,7.113,17.174c22.543-1.754,43.43-18.455,62.173-30.26
		c22.543-14.197,45.037-28.385,66.782-43.805c38.996-27.654,76.068-58.032,110.928-90.743c-4.77,23.177-8.804,46.504-14.446,69.583
		c-3.981,16.268-8.414,32.399-13.525,48.351c-4.926,15.347-12.663,29.695-12.399,45.924c0.107,6.626,8.511,10.431,13.291,5.505
		c21.218-21.856,28.029-64.814,34.996-93.618c7.639-31.591,13.213-62.86,12.166-95.045c31.902-31.907,61.252-66.324,88.769-102.075
		c17.106-22.227,34.163-45.32,49.428-69.418c7.045,51.172,13.125,102.47,18.105,153.871c7.683,79.284,12.75,158.801,14.616,238.441
		c2.387,101.676-1.842,202.528-14.081,303.478c-3.109,25.618,41.866,31.946,45.408,6.144
		c26.329-191.853,15.026-390.133-5.744-581.914c-0.663-6.134-1.384-12.263-2.075-18.397c-5.486-48.716-11.786-97.349-18.933-145.871
		C1211.371,1294.507,1246.245,1317.474,1278.713,1338.848z"/>
	<path style="fill:#FBCEA4;" d="M524.453,823.18c-22.675,15.435-39.956,36.165-64.843,49.437
		c-26.339,14.046-54.616,21.047-83.78,26.236c-5.374,0.955-4.034,9.486,1.276,9.413c30.013-0.424,59.016-8.862,85.725-22.382
		c24.151-12.224,55.507-31.318,68.341-55.985C533.281,825.845,528.775,820.242,524.453,823.18z"/>
	<path style="fill:#FBCEA4;" d="M775.22,879.365c1.618-1.744,0.049-5.038-2.451-4.205c-21.91,7.284-41.023,17.272-64.828,17.53
		c-27.717,0.302-53.744-10.675-75.283-27.591c-2.709-2.129-6.509,1.35-3.898,3.893C664.77,904.008,736.716,920.729,775.22,879.365z"
		/>
	<path style="fill:#FBCEA4;" d="M879.215,274.708c-0.487-1.423-2.918-1.759-3.235,0c-5.213,29.208-4.565,57.715-15.294,86.012
		c-12.151,32.043-32.365,59.065-56.029,83.527c-1.735,1.788,0.555,5.086,2.758,3.571
		C856.049,414.352,899.844,334.693,879.215,274.708z"/>
	<path style="fill:#FBCEA4;" d="M1185.88,684.071c7.391-37.939,16.994-74.904,32.599-110.421c0.969-2.217-1.954-4.064-3.313-1.934
		c-21.535,33.768-34.349,71.313-34.226,111.688C1180.949,686.152,1185.325,686.931,1185.88,684.071z"/>
	<path style="fill:#FBCEA4;" d="M1754.741,1451.914c-4.852-22.957-2.285-45.423,2.256-68.18c0.282-1.403-1.642-2.387-2.407-1.013
		c-21.598,38.679-13.325,99.795,21.5,128.989c2.957,2.48,7.922-0.662,5.647-4.356
		C1770.557,1489.23,1759.268,1473.323,1754.741,1451.914z"/>
	<path style="fill:#FBCEA4;" d="M667.557,1623.851c8.745,24,19.264,44.346,21.038,70.543c1.691,25.003-2.894,49.525-12.224,72.677
		c-2.109,5.242,6.899,9.091,9.199,3.878c19.966-45.262,23.571-111.279-10.807-151.293
		C672.005,1616.45,666.1,1619.851,667.557,1623.851z"/>
	<path style="fill:#FBCEA4;" d="M1120.18,1469.834c-28.131,39.04-56.034,94.65-61.393,143.025c-0.195,1.769,2.587,2.446,3.347,0.906
		c10.217-20.628,16.132-43.161,24.711-64.502c10.709-26.631,23.941-51.922,35.61-78.1
		C1123.142,1469.615,1121.178,1468.445,1120.18,1469.834z"/>
	<path style="fill:#FBCEA4;" d="M1762.254,609.236c2.572-2.68-0.658-6.31-3.776-4.892c-40.224,18.28-77.569,28.058-119.357,6.675
		c-4.916-2.514-9.237,4.736-4.355,7.445C1672.895,639.643,1729.753,643,1762.254,609.236z"/>
	<path style="fill:#FBCEA4;" d="M1271.137,879.657c35.644-34.733,56.009-90.407,52.287-139.873
		c-0.141-1.876-3.162-2.607-3.532-0.477c-4,23.22-7.868,46.514-15.99,68.74c-9.013,24.658-22.747,46.553-36.341,68.853
		C1266.202,879.126,1269.295,881.45,1271.137,879.657z"/>
</g>
</svg>
