<?xml version="1.0" encoding="utf-8"?>
<!-- Generator: Adobe Illustrator 27.5.0, SVG Export Plug-In . SVG Version: 6.00 Build 0)  -->
<svg version="1.1" id="Layer_1" xmlns="http://www.w3.org/2000/svg" xmlns:xlink="http://www.w3.org/1999/xlink" x="0px" y="0px"
	 viewBox="0 0 2000 2000" style="enable-background:new 0 0 2000 2000;" xml:space="preserve">
<g>
	<path style="fill:#7A9600;" d="M987.496,236.105C832.375,475.407,792.731,684.775,780.9,802.612
		c-16.923,168.54,8.602,468.39,120.675,519.638c0,0,119.96,54.854,137.088,111.067c0.741,2.431,5.366,18.714,8.812,18.279
		c3.35-0.423,3.835-16.434,3.933-18.475c1.966-40.601,123.071-149.937,137.733-164.213c99.312-96.69-34.498-356.966-149.845-800.812
		C1012.568,365.248,996.035,281.895,987.496,236.105z"/>
	<path style="fill:#667400;" d="M1053.094,1344.799c-32.947-65.732-55.375-136.751-78.042-289.409
		c-9.255-62.334-18.812-126.7-24.304-216.475c-10.757-175.821,9.789-192.324,8.722-347.964
		c-0.151-21.916-0.892-70.39,21.982-125.753c7.856-19.016,16.399-33.763,22.41-43.271c0.074-0.4,0.159-0.824,0.282-1.265
		c0.112-0.4,0.235-0.79,0.349-1.19c-7.475-34.996-13.088-63.924-16.999-84.895C832.377,473.88,792.731,683.248,780.9,801.084
		c-16.923,168.54,8.604,468.39,120.675,519.638c0,0,119.96,54.856,137.088,111.067c0.741,2.431,5.366,18.715,8.812,18.279
		c3.352-0.421,3.835-16.434,3.933-18.475c0.541-11.157,10.196-27.55,24.057-45.69
		C1069.974,1376.582,1061.934,1362.434,1053.094,1344.799z"/>
	<path style="fill:#590600;" d="M968.712,393.986c-2.511-0.294-22.461,109.505-27.548,251.653
		c-1.19,33.243-1.333,61.701-1.151,83.558c-4.511-9.351-10.384-22.39-16.242-38.327c-24.878-67.667-25.58-122.489-26.343-122.404
		c-0.71,0.08-0.688,47.386,14.639,108.97c8.967,36.027,20.187,64.94,28.872,84.797c0.637,33.949,2.127,69.343,4.684,106.058
		c3.527,50.666,8.724,98.658,15.011,143.738c-7-16.644-20.628-41.562-46.906-59.684c-29.17-20.116-61.327-23.17-61.701-21.974
		c-0.377,1.211,32.112,5.695,60.399,26.878c32.769,24.537,46.747,61.636,53.42,90.122c7.765,36.727,15.531,73.456,23.296,110.185
		c-17.382-19.295-45.618-44.438-86.242-57.304c-38.147-12.08-74.429-9.283-74.615-7.416c-0.2,2.004,37.774,1.224,74.779,16.546
		c49.088,20.328,78.779,63.971,97.101,102.263c8.298,40.454,16.597,80.908,24.896,121.362
		c-10.116-13.778-27.84-33.173-55.292-43.383c-27.729-10.314-54.518-7.212-54.6-6.211c-0.088,1.051,27.517-1.133,53.167,10.316
		c34.17,15.25,53.148,49.46,64.289,80.418c10.961,105.856,4.135,190.062-4.997,249.69c-9.404,61.411-27.084,134.593-10.626,141.111
		c8.636,3.421,22.469-12.537,27.625-18.487c62.711-72.344,5.85-378.902-9.896-459.4c8.169-27.934,22.318-62.038,48.376-94.866
		c18.04-22.726,37.49-39.426,36.376-40.64c-1.168-1.276-24.588,15.132-44.702,37.731c-25.015,28.107-37.478,57.433-43.98,77.061
		c-7.564-41.608-15.129-83.219-22.692-124.828c4.172-25.804,13.39-61.062,36.023-96.301c32.465-50.546,77.442-77.548,76.144-79.167
		c-1.104-1.376-31.552,16.211-60.354,45.959c-33.144,34.228-50.623,70.629-60.002,95.474c-7.326-28.497-14.123-59.776-19.681-93.606
		c-5.748-34.98-9.371-67.814-11.528-98.017c16.999-20.82,40.117-52.524,60.774-94.776c24.253-49.6,34.522-92.071,33.486-92.443
		c-1.045-0.376-11.747,42.714-42.13,89.804c-20.234,31.365-42.236,53.71-58.222,68.051c-3.094-41.679-6.675-103.043-7.316-177.379
		C953.674,520.374,972.265,394.401,968.712,393.986z"/>
</g>
</svg>
