<?xml version="1.0" encoding="utf-8"?>
<!-- Generator: Adobe Illustrator 27.5.0, SVG Export Plug-In . SVG Version: 6.00 Build 0)  -->
<svg version="1.1" id="Capa_1" xmlns="http://www.w3.org/2000/svg" xmlns:xlink="http://www.w3.org/1999/xlink" x="0px" y="0px"
	 viewBox="0 0 2122 2122" style="enable-background:new 0 0 2122 2122;" xml:space="preserve">
<g>
	<path style="fill:#844144;" d="M1396.469,1244.188c0,0,586.621-239.484,432.629-694.113c0,0-380.336-47.543-551.648,346.441
		c49.059-218.859,66.723-584.152-223.285-745.188c-45.191,37.297-82.93,76.406-114.234,116.637
		c-27.231,185.457-21.824,377.695,22.215,558.82c12.981,53.379,30.129,105.754,52.008,155.965
		c0.43-90.68,2.887-181.316,5.375-272.059c4.258-155.395,3.746-311.137,20.555-465.871c1.719-15.813,26.684-15.98,24.945,0
		c-16.813,154.766-16.07,310.457-20.555,465.871c-3.117,108.039-6.137,216-5.523,324.035c19.34,37.055,41.559,72.605,67.063,106.066
		c10.574,13.875,21.57,27.387,32.879,40.609c219.074-161.309,416.418-353.512,579.598-571.063
		c9.531-12.707,31.207-0.293,21.539,12.586c-164.922,219.879-363.582,413.992-584.691,577.203
		c59.875,66.383,128.914,124.078,204.531,172.125c155.07,98.551,333.352,151.176,515.145,174.203
		C1724.629,1253.801,1396.469,1244.188,1396.469,1244.188z"/>
	<path style="fill:#702D35;" d="M1884.52,1565.969c-3.074-6.586-6.211-13.086-9.457-19.406c-0.016-0.031-0.031-0.07-0.051-0.105l0,0
		c-181.793-23.027-360.074-75.652-515.145-174.203c-75.617-48.047-144.656-105.742-204.531-172.125
		c-35.496,26.199-71.535,51.633-108.145,76.211c0.883,13.809,1.824,27.609,2.867,41.406c2.133-0.75,4.625-0.863,7.422-0.008
		c88.52,27.086,175.355,59.254,263.941,86.273c41.777,12.742,83.105,27.117,124.715,40.488
		c92.559,29.746,185.332,59.34,276.934,91.934c15.043,5.352,8.563,29.457-6.633,24.051
		c-92.973-33.078-187.137-63.168-281.109-93.266c-43.117-13.813-85.898-28.859-129.273-41.781
		c-85.484-25.469-168.832-57.152-254.074-83.293c4.055,49.047,9.203,98.004,15.598,146.77
		c434.598,364.539,828.082,102.332,828.082,102.332c-2.883-7.008-5.895-13.832-8.965-20.563
		C1885.977,1569.105,1885.25,1567.531,1884.52,1565.969z"/>
	<path style="fill:#702D35;" d="M1038.949,1034.727c0.184,31.633,0.633,63.277,1.539,94.93c1.121,39.23,2.754,78.504,4.965,117.766
		c31.555-21.387,62.707-43.391,93.438-66.02c-11.309-13.223-22.305-26.734-32.879-40.609
		C1080.508,1107.332,1058.289,1071.781,1038.949,1034.727z"/>
	<path style="fill:#702D35;" d="M377.625,1574.75c-15.152,5.512-21.621-18.602-6.629-24.055
		c217.941-79.293,437.73-155.684,653.258-241.359c-0.637-8.891-1.246-17.781-1.82-26.676
		c-69.184-33.43-130.266-83.305-186.031-135.563c-64.805-60.734-124.477-126.848-180.902-195.387
		c-75.125-91.25-147.496-186.266-211.137-285.996c-8.68-13.605,12.918-26.102,21.539-12.586
		c62.477,97.898,133.289,191.519,207.238,280.941c55.195,66.742,113.012,131.766,176.258,191.035
		c52.059,48.789,107.84,95.477,171.289,128.773c-2.18-38.445-3.793-76.887-4.891-115.258c-1.484-51.988-1.891-103.938-1.645-155.871
		c-21.879-50.211-39.027-102.586-52.008-155.965c-44.039-181.125-49.445-373.363-22.215-558.82c0-0.004,0-0.004,0-0.004
		c-0.012,0.012-0.02,0.023-0.027,0.035c-74.797,96.125-112.613,198.656-126.105,298.324c-0.02,0.137-0.039,0.277-0.059,0.414
		c-2.652,19.715-4.356,39.313-5.203,58.73c-0.016,0.309-0.031,0.617-0.047,0.926c-0.266,6.348-0.449,12.684-0.539,18.988
		c-0.004,0.164-0.004,0.324-0.004,0.484c-0.176,12.617,0.012,25.148,0.512,37.563c0.02,0.504,0.039,1,0.063,1.5
		c0.254,6.027,0.586,12.023,0.988,17.992c0.031,0.414,0.063,0.824,0.09,1.238c0.836,12,1.965,23.883,3.363,35.637
		c0.082,0.691,0.164,1.383,0.246,2.074c0.688,5.645,1.438,11.262,2.242,16.844c0.094,0.656,0.199,1.313,0.297,1.969
		c1.664,11.313,3.574,22.481,5.699,33.496c0.164,0.848,0.324,1.695,0.492,2.539c1.035,5.266,2.117,10.492,3.246,15.684
		c0.18,0.824,0.367,1.645,0.547,2.469c1.18,5.324,2.391,10.617,3.664,15.856c0,0.012,0.004,0.019,0.008,0.031
		c1.266,5.207,2.586,10.363,3.941,15.484c0.238,0.906,0.477,1.813,0.719,2.715c1.316,4.906,2.668,9.773,4.059,14.594
		c0.262,0.906,0.527,1.805,0.793,2.707c1.453,4.973,2.934,9.914,4.461,14.789c-30.434-78.219-85.926-163.984-137.219-208.977
		c-143.57-144.25-359.164-148.547-359.164-148.547s-22.609,219.973,35.637,396.629c45.801,138.926,186.605,295.516,386.281,328.797
		c-404.109,57.051-543.25,309.066-543.25,309.066c5.797,30.109,64.719,70.105,86.848,84.012
		c106.895,67.195,236.879,70.605,356.563,57.254c92.133-10.273,186.68-36.277,262.785-95.461
		c25.125-19.539,82.039-61.402,112.188-100.988c-7.527-55.676-13.371-111.602-17.824-167.605
		C812.184,1420.148,594,1496.027,377.625,1574.75z"/>
	<path style="fill:#6D0F15;" d="M1306.055,1425.438c43.375,12.922,86.156,27.969,129.273,41.781
		c93.973,30.098,188.137,60.188,281.109,93.266c15.195,5.406,21.676-18.699,6.633-24.051
		c-91.602-32.594-184.375-62.188-276.934-91.934c-41.609-13.371-82.938-27.746-124.715-40.488
		c-88.586-27.02-175.422-59.188-263.941-86.273c-2.797-0.855-5.289-0.742-7.422,0.008c-1.043-13.797-1.984-27.598-2.867-41.406
		c36.609-24.578,72.648-50.012,108.145-76.211c221.109-163.211,419.77-357.324,584.691-577.203
		c9.668-12.879-12.008-25.293-21.539-12.586c-163.18,217.551-360.523,409.754-579.598,571.063
		c-30.73,22.629-61.883,44.633-93.438,66.02c-2.211-39.262-3.844-78.535-4.965-117.766c-0.906-31.652-1.355-63.297-1.539-94.93
		c-0.613-108.035,2.406-215.996,5.523-324.035c4.484-155.414,3.742-311.105,20.555-465.871c1.738-15.98-23.227-15.813-24.945,0
		c-16.809,154.734-16.297,310.477-20.555,465.871c-2.488,90.742-4.945,181.379-5.375,272.059
		c-0.246,51.934,0.16,103.883,1.645,155.871c1.098,38.371,2.711,76.813,4.891,115.258
		c-63.449-33.297-119.231-79.984-171.289-128.773c-63.246-59.27-121.063-124.293-176.258-191.035
		c-73.949-89.422-144.762-183.043-207.238-280.941c-8.621-13.516-30.219-1.02-21.539,12.586
		c63.641,99.731,136.012,194.746,211.137,285.996c56.426,68.539,116.098,134.652,180.902,195.387
		c55.766,52.258,116.848,102.133,186.031,135.563c0.574,8.894,1.184,17.785,1.82,26.676
		c-215.527,85.676-435.316,162.066-653.258,241.359c-14.992,5.453-8.523,29.566,6.629,24.055
		c216.375-78.723,434.559-154.602,648.594-239.527c4.453,56.004,10.297,111.93,17.824,167.605
		c21.684,160.391,57.285,318.66,113.785,470.484c5.551,14.938,29.668,8.477,24.051-6.625
		c-57.438-154.371-92.957-314.988-114.301-477.773c-6.395-48.766-11.543-97.723-15.598-146.77
		C1137.223,1368.285,1220.57,1399.969,1306.055,1425.438z"/>
	<path style="fill:#AD545A;" d="M1619.137,872.988c-56.652,56.609-82.27,122.824-57.211,147.898
		c25.055,25.07,91.293-0.488,147.934-57.09c56.656-56.605,82.27-122.82,57.215-147.898
		C1742.02,790.824,1675.785,816.391,1619.137,872.988z"/>
	<path style="fill:#AD545A;" d="M1465.668,1064.656c-16.508,16.492-18.051,41.711-3.449,56.328
		c14.602,14.617,39.82,13.086,56.332-3.406c16.504-16.496,18.055-41.715,3.449-56.328
		C1507.398,1046.637,1482.18,1048.16,1465.668,1064.656z"/>
</g>
</svg>
