<svg viewBox="0 0 512 512" width="512" height="512" xmlns="http://www.w3.org/2000/svg">
    <path style="fill:#ff0000" d="m 142.02539,16.890625 c -47.783999,21.998 -79.314452,57.367109 -79.314452,97.037105 0,26.11 13.418749,50.28707 36.21875,70.03907 -11.664001,25.398 -18.990547,53.91089 -20.810547,84.21289 17.194,0.562 33.531359,4.20422 48.193359,11.69922 41.566,21.25 61.08311,66.94475 57.78711,121.09375 a 286.662,286.662 0 0 0 23.12109,4.58007 c 0.894,-16.76 0.82991,-33.46904 -0.49609,-50.12304 l 14.22851,-1.13281 0.16797,-4.02149 c 0.6364,-15.20427 3.65181,-26.28318 11.58399,-42.56055 4.23874,-8.69816 8.17795,-15.59166 14.54492,-24.66211 4.78441,-12.95926 8.27875,-25.91963 11.15039,-38.8789 1.25788,6.13173 2.64849,12.2628 4.26367,18.39453 2.3393,-2.98178 4.88673,-6.19529 7.66992,-9.6875 1.28799,-1.61609 2.58184,-3.24351 3.85743,-4.84961 -0.69517,-1.56662 -1.29063,-3.17265 -1.78125,-4.8125 2.05344,-0.18177 4.09026,-0.40057 6.11132,-0.65234 4.93704,-6.24064 9.02729,-11.45523 10.42774,-13.30664 8.47001,-11.19747 14.61764,-21.87581 17.78516,-30.89454 2.26042,-6.436 2.83233,-16.55048 1.24414,-22.01367 -3.98002,-13.69075 -16.81048,-27.60504 -30.91993,-33.5332 -13.21668,-5.55306 -28.56906,-5.34735 -41.53125,0.55664 -17.48094,7.96218 -31.83643,25.0024 -41.39453,49.13672 -1.83534,4.63428 -2.26824,5.26195 -3.43554,4.97461 -0.73488,-0.1809 -14.3915,-3.39592 -30.34766,-7.14453 -15.95617,-3.7486 -29.08912,-6.87699 -29.18359,-6.95313 -0.0945,-0.0761 0.81221,-3.5524 2.01367,-7.72461 3.78528,-13.1448 9.068,-25.20233 15.71289,-36.02734 -17.52855,-18.14955 -27.95899,-40.804848 -27.95899,-65.367189 0,-20.96 8.0368,-40.809953 21.0918,-57.376953 z m 6.86719,122.746095 c 13.82857,14.3185 32.07392,25.8329 53.09961,33.26953 l 6.125,-14.26367 c -12.749,-4.613 -24.22258,-10.92024 -33.89258,-18.49024 -5.76363,-4.51182 -10.87941,-9.43883 -15.26953,-14.70898 -3.63536,4.45821 -6.99401,9.19457 -10.0625,14.19336 z m 10.0625,-14.19336 c 15.12785,-18.55202 35.04725,-32.29821 58.7793,-40.19336 14.59316,-4.854842 26.37429,-6.755859 41.87304,-6.755859 40.3142,0 76.33422,17.222499 95.35156,45.589839 0.32431,0.48375 0.6845,1.04875 1.07227,1.67579 3.41169,-4.05936 6.39259,-8.32503 8.9082,-12.76172 -29.85,-25.333003 -66.64228,-40.283206 -106.48828,-40.283206 -40.34,0 -77.55361,15.313656 -107.59961,41.222656 2.33152,3.98585 5.04123,7.82972 8.10352,11.50586 z m 197.07617,0.31641 c -4.32954,5.15144 -9.35319,9.97144 -15.00195,14.39257 -8.643,6.767 -18.727,12.52289 -29.875,16.96289 l 6.14062,14.30079 c 18.40379,-7.08883 34.51653,-17.34788 47.1836,-29.87696 -0.43022,-0.92523 -0.87306,-1.8561 -1.32813,-2.79101 -2.02348,-4.1571 -4.97695,-9.52429 -7.11914,-12.98828 z m 8.44727,15.77929 c 11.56173,24.86503 14.15421,46.29683 8.14453,67.61914 4.82004,6.78594 7.60742,14.72012 7.60742,23.07422 0,22.85933 -20.96669,42.06681 -47.74219,45.09961 -17.33748,24.87918 -25.27004,40.96486 -29.92969,60.04688 -1.03171,4.225 -2.2096,10.61335 -2.61718,14.19531 -0.11522,1.01263 -0.2338,2.00015 -0.34571,2.9082 l 11.89063,0.94922 c -1.323,16.597 -1.38991,33.24622 -0.50391,49.94922 7.307,-1.07 14.60028,-2.35575 21.86328,-3.84375 -3.467,-54.395 16.04005,-100.3313 57.74805,-121.6543 14.66,-7.497 30.99745,-11.14312 48.18945,-11.70312 -1.843,-30.716 -9.3422,-59.59396 -21.2832,-85.25196 22.08,-19.56 35.04492,-43.346 35.04492,-69 0,-39.669996 -31.5324,-75.040152 -79.3164,-97.035152 13.055,16.567 21.09179,36.416953 21.09179,57.376953 0,25.427678 -11.18084,48.811869 -29.84179,67.269529 z m -64.88282,212.94336 -6.73828,-0.53711 c -0.1469,1.84452 -0.27863,3.68985 -0.39648,5.53321 4.69091,-0.12327 6.43414,-0.31372 6.51367,-0.59571 0.0887,-0.31443 0.33715,-2.0964 0.62109,-4.40039 z m -7.13476,4.9961 c -4.61738,0.12133 -12.09004,0.17772 -23.63867,0.19531 v 20.36914 c 3.57517,0.58207 7.17741,1.56519 10.75976,2.98242 4.32016,1.70912 8.44395,4.22506 12.17578,7.33789 -0.16823,-10.27722 0.0437,-20.5712 0.70313,-30.88476 z m -0.70313,30.88476 c 0.0944,5.7664 0.30802,11.52825 0.62891,17.2832 -7.872,0.759 -15.73445,1.26368 -23.56445,1.51368 v -29.11719 c -6.40792,-1.04327 -12.72855,-0.79583 -18.6875,0.55664 v 28.66601 c -8.182,-0.172 -16.30027,-0.62281 -24.32227,-1.38281 0.26333,-4.68247 0.45701,-9.3686 0.57227,-14.05859 -8.49282,8.63135 -13.8443,20.5967 -13.83008,34.39844 0.009,8.56469 1.4879,14.8291 5.17187,21.91015 0.9574,1.84024 2.01309,3.6027 3.16016,5.28321 1.40548,-9.60613 2.59311,-19.22855 3.50976,-28.86914 a 349.206,349.206 0 0 0 25.74024,1.44335 v 47.59766 c 1.38125,0.32024 2.78196,0.58238 4.20117,0.78125 4.51008,0.63199 9.53612,0.47278 14.48438,-0.37109 v -48.10938 c 8.307,-0.257 16.64156,-0.78008 24.97656,-1.58008 1.05775,11.17678 2.47664,22.33 4.18164,33.46094 4.88686,-5.68346 8.38882,-12.52933 10.36719,-20.36523 1.93373,-7.65914 1.51035,-19.11558 -0.97657,-26.48438 -2.93538,-8.69765 -8.57709,-16.68754 -15.61328,-22.55664 z m 6.22266,69.40625 c -3.98619,4.63597 -8.89449,8.49858 -14.65235,11.49414 -4.30575,2.24011 -9.36379,3.85745 -14.50585,4.73438 v 17.58398 a 157.874,157.874 0 0 0 33.97461,-6.00976 c -1.77268,-9.25128 -3.39432,-18.51875 -4.81641,-27.80274 z m -47.84375,15.81836 c -11.88295,-2.75505 -22.25454,-9.92322 -29.25,-20.17187 -1.589,10.86043 -3.4568,21.69953 -5.5332,32.51562 a 157.903,157.903 0 0 0 34.7832,5.77148 z m -23.75195,-81.76367 c 6.43478,-6.53975 14.67299,-11.16446 23.75,-13.22461 v -20.91992 h -24.36915 c 0.72334,11.40375 0.8983,22.78528 0.61915,34.14453 z m -0.61915,-34.14453 c -0.12121,-1.91102 -0.25768,-3.8221 -0.41015,-5.73438 l -4.40235,0.35157 -0.2246,5.38281 z m 24.36915,0 h 9.60546 c 3.27602,0 6.29723,-0.002 9.08204,-0.006 v -6.64453 h -18.6875 z m 82.35351,-82.34766 c 1.55536,-2.23192 3.18533,-4.536 4.89649,-6.91797 21.95408,-30.56054 29.16113,-42.68829 33.99414,-57.20898 0.44896,-1.34889 0.86394,-2.69794 1.24414,-4.04688 -2.37243,-3.34005 -5.23805,-6.40114 -8.50586,-9.09765 -0.038,-0.034 -0.0837,-0.044 -0.13672,-0.041 -0.161,0.008 -0.37238,0.12406 -0.48438,0.0391 -17.44832,22.12263 -48.45714,37.95873 -84.97461,42.50782 -1.39009,1.75713 -2.84675,3.59717 -4.33007,5.46484 7.65612,17.2536 27.3463,29.7168 50.88867,29.7168 2.50948,0 4.98279,-0.1413 7.4082,-0.41602 z m -69.82422,-14.76367 c -6.52618,8.3186 -11.44205,14.82581 -15.41406,20.48437 -5.33873,14.46074 -12.28382,28.92013 -21.75977,43.38086 21.002,5.627 45.54632,5.432 65.82032,0 -14.7372,-21.28827 -23.03885,-42.57696 -28.64649,-63.86523 z M 152.31055,200.01758 h 0.002 c 0.054,-0.004 0.1,0.004 0.12695,0.0371 18.414,23.35 51.92994,39.69711 91.08594,43.16211 -5.892,19.698 -26.98992,34.52929 -52.66992,34.52929 -30.21,0 -55.14844,-20.58262 -55.14844,-45.51562 0.002,-12.465 6.20438,-23.99783 16.10938,-32.17383 0.083,0.094 0.33014,-0.0261 0.49414,-0.0391 z m 29.77929,219.69726 c -2.34003,15.39963 -6.41315,31.29951 -12.25,47.3711 a 168.84,168.84 0 0 0 27.66407,14.63672 c 3.627,-19.225 6.53512,-38.37608 8.32812,-57.45508 a 309.037,309.037 0 0 1 -23.74219,-4.55274 z m 152.80274,0.47852 a 409.42,409.42 0 0 1 -22.52735,3.88867 c 1.777,18.972 4.65505,38.01586 8.24805,57.13086 a 169.154,169.154 0 0 0 26.45313,-14.12695 c -5.776,-15.906 -9.82383,-31.64358 -12.17383,-46.89258 z" />
</svg>
