<svg viewBox="0 0 512 512" width="512" height="512" xmlns="http://www.w3.org/2000/svg">
    <path style="fill:#ffee00" d="M 35.310547,22.300781 C 27.498547,42.766781 22.138,64.643906 20,87.378906 l 103.70508,27.789064 -4.83789,18.05273 -99.873049,-26.76367 c -0.012,0.954 -0.03516,1.90438 -0.03516,2.85938 a 245.24,245.24 0 0 0 3.480469,41.23047 h 94.14649 v 18.6875 H 26.392578 a 241.526,241.526 0 0 0 13.291016,38.54687 l 79.183596,-21.2168 4.83789,18.05078 -75.640627,20.26954 a 243.25,243.25 0 0 0 20.396485,31.63671 l 61.933592,-35.75586 9.3418,16.18165 -59.218752,34.19335 a 242.998,242.998 0 0 0 25.130862,24.39844 l 44.73047,-44.72461 13.21484,13.21485 -43.05664,43.05078 a 240.34,240.34 0 0 0 28.1875,17.35742 l 28.73242,-49.77148 16.1875,9.3457 -27.98828,48.47266 a 237.318,237.318 0 0 0 39.15625,12.86914 c 0.99,3.566 2.08,7.10375 3.25,10.59375 -12.36,9.993 -24.16214,20.49051 -35.11914,31.72851 a 33.73,33.73 0 0 0 -14.75,-3.37305 c -18.707,0 -33.875,15.16405 -33.875,33.87305 0,1.715 0.12995,3.40083 0.37695,5.04883 2.02,-11.514 12.0613,-20.26367 24.1543,-20.26367 3.103,0 6.06683,0.58181 8.79883,1.63281 -10.103,12.102 -19.19325,25.07852 -26.90625,39.22852 13.897,-7.544 27.68439,-15.75468 41.15039,-24.76368 a 24.533,24.533 0 0 1 1.48633,8.42969 c 0,12.122 -8.79752,22.18397 -20.35352,24.16797 a 34.14,34.14 0 0 0 5.16797,0.39453 c 18.71,0 33.87305,-15.168 33.87305,-33.875 0,-4.17 -0.75582,-8.16161 -2.13282,-11.84961 10.033,-7.467 19.82277,-15.42842 29.25977,-23.98242 2.978,5.705 6.20339,11.03241 9.65039,15.81641 l -43.53125,87.16992 c 48.267,22.47 115.70105,22.76 157.87305,0 L 301.05469,400.9707 c 3.722,-4.81 7.20978,-10.25062 10.42578,-16.14062 8.577,7.617 17.42937,14.77176 26.48437,21.50976 a 33.778,33.778 0 0 0 -2.13086,11.83594 c 0,18.707 15.16405,33.87305 33.87305,33.87305 1.758,0 3.48783,-0.13263 5.17383,-0.39063 -11.56,-1.983 -20.35547,-12.04497 -20.35547,-24.16797 0,-2.964 0.52524,-5.80554 1.49023,-8.43554 13.464,9.006 27.24658,17.22358 41.14258,24.76758 -7.71,-14.148 -16.77995,-27.13629 -26.87695,-39.23829 a 24.457,24.457 0 0 1 8.77539,-1.62304 c 12.09,0 22.12844,8.74972 24.14844,20.26172 0.246,-1.647 0.37695,-3.33188 0.37695,-5.04688 0,-18.71 -15.166,-33.87305 -33.875,-33.87305 a 33.755,33.755 0 0 0 -14.71875,3.35547 c -10.007,-10.27 -20.73931,-19.90909 -31.94531,-29.12109 a 208.561,208.561 0 0 0 5.13086,-16.88477 237.88,237.88 0 0 0 23.19922,-8.2832 L 332.08984,299.9707 c -15.70003,22.9552 -23.11503,38.42224 -27.55664,56.61133 -1.03171,4.225 -2.2096,10.6114 -2.61718,14.19336 -0.40757,3.58195 -0.84121,6.87219 -0.96485,7.31055 -0.1767,0.62648 -8.57252,0.79687 -39.23633,0.79687 h -39.01172 l 0.39454,-9.40429 c 0.6364,-15.20427 3.6518,-26.28318 11.58398,-42.56055 7.83091,-16.06954 14.63286,-25.98221 37.62695,-54.83399 8.1051,-10.16986 16.48138,-20.8001 18.61524,-23.62109 3.37285,-4.45895 6.37784,-8.83409 8.97265,-13.05664 -17.60912,-11.41345 -33.30862,-25.08614 -35.50976,-37.66797 l 17.65234,-3.80859 -2.23437,-10.35352 c 5.9085,-4.27395 12.18628,-6.62229 18.75976,-7.40234 -5.51637,-6.0618 -12.35756,-11.13911 -19.52929,-14.15235 -6.14411,-2.58148 -12.75065,-3.91908 -19.36328,-4.01757 1.5709,1.50354 2.72527,3.47779 3.21874,5.76367 1.31201,6.085 -2.55753,12.08348 -8.64453,13.39648 -6.087,1.313 -12.08543,-2.55558 -13.39843,-8.64258 -0.58833,-2.72447 -0.13779,-5.43329 1.08593,-7.71093 -1.50292,0.51761 -2.98217,1.10738 -4.43164,1.76757 -10.55577,4.80793 -19.97068,12.9248 -27.8789,23.91602 L 189.31641,156.45312 270.18555,139 v 0.006 l 2.8457,13.1875 41.9043,-9.04102 18.30078,40.41407 c -12.1455,-5.68622 -23.81174,-8.68132 -34.67188,-7.39258 5.33638,5.86401 9.43167,12.64901 11.38867,19.38086 1.58819,5.46319 1.01824,15.57767 -1.24218,22.01367 -1.90618,5.42737 -4.89309,11.45664 -8.81446,17.83789 3.29484,2.13556 6.65724,4.19092 10.00977,6.14648 23.881,-16.282 39.60352,-43.804 39.60352,-75 0,-15.7569 -4.09217,-30.56773 -11.17969,-43.4707 -19.93286,-16.12454 -47.18642,-25.384764 -76.74805,-25.384764 -15.49875,0 -27.27989,1.901024 -41.87305,6.755854 -15.2416,5.07057 -28.90925,12.55346 -40.74609,22.17383 -5.94434,12.04188 -9.33008,25.59102 -9.33008,39.92188 0,17.59934 5.00481,34.02655 13.65625,47.92578 5.45364,1.28395 9.01723,2.12485 9.38282,2.21484 1.1673,0.28734 1.60215,-0.34033 3.4375,-4.97461 3.78626,-9.56036 8.32583,-18.00818 13.51367,-25.21875 l 0.15039,0.22266 c -8.595,19.678 -2.71583,41.68055 5.45117,58.56055 -13.01058,-7.44651 -24.00509,-18.06379 -31.93555,-30.80469 -5.50887,-1.29695 -12.94656,-3.04594 -20.96484,-4.92969 -15.95617,-3.7486 -29.08913,-6.87698 -29.1836,-6.95312 -0.0945,-0.0761 0.81222,-3.5524 2.01368,-7.72461 8.13556,-28.25166 23.19457,-51.48621 43.80859,-68.24024 3.06206,-6.20303 6.80242,-12.00607 11.10938,-17.31054 C 118.90427,96.233406 61.8305,63.810781 35.3125,22.300781 Z M 338.33008,123.08203 c 7.25026,5.86504 13.53122,12.63897 18.60351,20.20508 2.11588,3.15616 5.8036,9.75447 8.19336,14.66406 13.45852,27.64951 16.03817,50.99306 8.22852,74.45703 -2.22949,6.69846 -4.96546,12.88669 -9.41992,20.61133 l 2.20898,-2.20703 45.92578,45.92188 a 242.752,242.752 0 0 0 25.66602,-24.59961 l -60.95117,-35.19141 9.34375,-16.18164 63.74804,36.80469 a 242.85,242.85 0 0 0 20.86914,-32.07032 l -77.92968,-20.88281 4.83789,-18.05078 81.5332,21.84766 a 241.674,241.674 0 0 0 13.58398,-39.17774 h -92.83593 v -18.6875 h 96.77734 a 245.44,245.44 0 0 0 3.48047,-41.23047 c 0,-1.19 -0.0259,-2.3755 -0.0449,-3.5625 l -102.4961,27.46875 -4.83593,-18.05468 106.27343,-28.476567 c -2.18,-22.49 -7.5199,-44.128672 -15.2539,-64.388672 h -0.004 c -26.517,41.51 -83.59167,73.933532 -154.76367,87.019529 3.47551,4.28006 6.58264,8.88441 9.26172,13.76172 z m -96.39649,37.72852 c 5.68929,-1.95941 11.71701,-2.89633 17.73829,-2.80664 -2.08992,-2.00031 -4.91838,-3.16869 -7.91211,-3.13672 -0.75,0.008 -1.50954,0.0909 -2.26954,0.2539 -3.36107,0.72568 -6.04722,2.88008 -7.55664,5.68946 z m 90.15625,139.16015 c 2.24834,-3.28731 4.66778,-6.72909 7.27149,-10.35351 1.61427,-2.2471 3.14965,-4.39315 4.60937,-6.44922 l 24.43164,42.31445 c 9.98,-5.11 19.55488,-10.89864 28.67188,-17.30664 l -41.61914,-41.62305 c -3.21633,4.83423 -6.99683,10.29241 -11.48438,16.61329 l -4.9082,-8.49805 -16.18555,9.3457 z m 23.36524,-33.41797 c 3.40049,-5.11102 6.16836,-9.52495 8.47656,-13.52734 l -11.00195,11.00195 z m -92.22656,132.04883 c 6.00991,0.0464 12.19833,1.20192 18.32812,3.62696 12.46561,4.93158 23.29877,16.58384 27.79102,29.89453 2.48692,7.3688 2.90834,18.82523 0.97461,26.48437 -3.59211,14.22762 -12.20285,25.19141 -25.01954,31.85938 -8.44923,4.39578 -19.79342,6.39421 -28.99023,5.10547 -15.63076,-2.19033 -29.13652,-11.8688 -36.61133,-26.23633 -3.68397,-7.08105 -5.16109,-13.34547 -5.16992,-21.91016 -0.0292,-28.40031 22.65431,-49.02546 48.69727,-48.82422 z" />
</svg>
