<svg viewBox="0 0 512 512" width="512" height="512" xmlns="http://www.w3.org/2000/svg">
    <path style="fill:#b0ff30" d="m 196.73047,35.230469 c -8.132,0.878 -16.30063,1.935875 -24.51563,3.171875 13.13251,7.472104 25.59366,16.857324 36.00391,30.142578 3.9929,-1.779224 8.11328,-3.377775 12.35547,-4.789063 2.32673,-0.774056 4.58272,-1.473429 6.79297,-2.101562 C 219.247,52.595306 209.13975,43.893322 196.73047,35.230469 Z m 30.63672,26.423828 c 15.02543,16.762578 23.24966,34.745907 26.68164,55.955083 1.31156,-0.14231 2.62993,-0.23565 3.94922,-0.2793 3.63081,-22.135138 12.50401,-40.755552 28.91406,-58.152346 C 279.01877,57.744595 270.82564,57 262.44727,57 c -13.02763,0 -23.42778,1.342811 -35.08008,4.654297 z m 59.54492,-2.476563 c 6.97847,1.267032 13.72293,3.072019 20.1543,5.378907 9.70288,-11.2123 20.94081,-19.452908 32.71875,-26.154297 a 591.705,591.705 0 0 0 -24.51368,-3.171875 h -0.002 c -11.2743,7.870369 -20.64753,15.773831 -28.35737,23.947265 z m 20.1543,5.378907 c -7.39382,8.544027 -13.89471,18.815013 -19.06446,31.445312 10.84626,-9.808471 20.63677,-18.568706 30.84375,-26.490234 -3.78849,-1.844777 -7.72188,-3.499709 -11.77929,-4.955078 z m 11.77929,4.955078 c 6.50514,3.167621 12.58499,6.894847 18.13868,11.134765 18.74696,-14.571638 37.05955,-24.746717 53.46679,-32.517578 a 689.186,689.186 0 0 0 -26.65429,-5.640625 c -17.81163,7.908376 -31.73047,16.762992 -44.95118,27.023438 z m 18.13868,11.134765 c -7.17985,5.58075 -14.42396,11.807168 -21.64844,18.789063 10.79906,-4.784171 20.4286,-8.8683 29.20117,-12.400391 -2.39162,-2.241843 -4.91271,-4.373164 -7.55273,-6.388672 z m 7.55273,6.388672 c 3.32833,3.119893 6.40575,6.453877 9.20312,9.988282 C 399.62343,82.68869 434.49941,74.192795 472.5,71.744141 A 966.86,966.86 0 0 0 435.56641,60.035156 c -31.21344,6.767595 -53.12773,11.739733 -91.0293,27 z m 9.20312,9.988282 c -20.29987,6.342052 -42.75536,13.827472 -68.58789,22.437502 l -2.01367,0.67187 -1.50195,1.50391 c -0.10475,0.10474 -0.21117,0.20929 -0.31836,0.3125 6.11392,2.81649 11.93646,7.10037 16.83789,12.16992 24.76299,-8.24763 46.22493,-15.33866 65.57617,-21.29102 -2.07924,-3.92094 -4.41244,-7.96925 -5.93359,-10.23828 -1.27776,-1.90597 -2.63118,-3.762899 -4.0586,-5.566402 z m 9.99219,15.804682 c 0.81293,1.53299 1.58805,3.0458 2.25977,4.42579 13.45852,27.64951 16.03816,50.99306 8.22851,74.45703 -4.83301,14.52069 -12.04006,26.64844 -33.99414,57.20898 -20.78534,28.93363 -29.75045,46.17098 -34.82812,66.96485 -1.03171,4.225 -2.20961,10.61139 -2.61719,14.19335 -0.40757,3.58196 -0.8412,6.87219 -0.96484,7.31055 -0.0691,0.24494 -1.39513,0.42037 -4.81641,0.54297 v 33.07422 c 5.91326,5.60476 10.61964,12.73603 13.21289,20.41992 2.48692,7.3688 2.90834,18.82524 0.97461,26.48438 -1.40324,5.55795 -3.57269,10.61886 -6.45898,15.11914 C 384.94953,406.95647 441.84964,393.00109 487,391.35352 V 89.287109 c -40.21489,1.009808 -75.24018,8.768001 -123.26758,23.541011 z m -59.0039,320.20118 c -2.55256,0.82961 -5.12837,1.67124 -7.72852,2.52539 v -64.54883 c -4.33019,-4.10429 -9.30856,-7.38989 -14.57812,-9.47461 -14.97007,-5.92237 -30.29088,-4.2732 -42.5,2.61133 12.96925,1.60971 26.03215,1.39363 39.07812,-0.92188 v 13.72071 c -15.488,3.384 -30.704,3.58956 -46,0.10156 v -8.16211 c -10.65201,8.74157 -17.61974,22.09913 -17.60352,37.84766 0.009,8.56469 1.48596,14.8291 5.16993,21.91015 3.16297,6.07963 7.40679,11.31947 12.43359,15.50781 v -48.72656 c 15.36666,2.93294 30.77237,2.73082 45.99805,-0.125 v 48.86719 c -6.65759,6.42137 -10.90285,10.38361 -21.14453,10.80078 9.07195,1.1017 20.07295,-0.90463 28.3164,-5.19336 7.80992,-4.06316 14.05636,-9.7204 18.5586,-16.74023 z m -46.875,21.93359 c -0.22646,-0.0275 -0.44985,-0.0565 -0.67383,-0.0879 C 248.16309,453.6115 239.85266,449.85613 233,444.14647 v 0.11133 c 3.222,3.24 5.77523,5.8746 8.36523,7.5586 3.283,2.136 6.76944,3.4914 14.27344,3.1914 l 0.17969,-0.01 h 0.17969 c 0.64,0 1.25795,-0.0108 1.85547,-0.0352 z M 233,368.88086 c 2.16431,-1.77614 4.48106,-3.36195 6.92188,-4.73828 -2.31037,-0.28676 -4.61811,-0.63206 -6.92188,-1.0332 z m 64,-30.94922 V 200.51758 c -1.62128,2.38392 -3.35937,4.80283 -5.20898,7.24804 -1.61871,2.13996 -6.831,8.77372 -12.79102,16.29102 v 114.10352 c 8.79763,-0.0335 14.49727,-0.103 18,-0.22852 z m -18,0.22852 c -4.58815,0.0175 -10.01876,0.0254 -16.41992,0.0254 H 233 v 6.62109 c 15.47,3.1 30.71,3.29266 46,0.0977 z m -46,0.0254 v -46.53907 c -6.04797,13.45509 -8.47393,23.6799 -9.03711,37.13477 l -0.39453,9.4043 z m 0,-46.53907 c 0.78636,-1.74942 1.6342,-3.55291 2.54688,-5.42578 7.8309,-16.06954 14.63286,-25.9822 37.62695,-54.83398 1.95671,-2.45519 3.9294,-4.93771 5.82617,-7.33008 V 144.48242 C 271.773,147.54042 263.86,149 256,149 c -7.86,0 -15.773,-1.45958 -23,-4.51758 z m 64,-91.1289 c 5.80312,-8.53288 10.10036,-16.5972 12.57617,-23.64649 2.26042,-6.436 2.83038,-16.55048 1.24219,-22.01367 -2.10986,-7.25765 -6.70606,-14.57794 -12.66211,-20.73828 -0.38466,0.12812 -0.76999,0.25609 -1.15625,0.38477 z m -15.68164,-78.56836 c -0.47144,-0.21718 -0.94334,-0.42559 -1.41797,-0.625 -6.93096,-2.91208 -14.44928,-4.24075 -21.90234,-3.99414 -0.72303,4.40793 -1.23919,8.95544 -1.56446,13.66015 9.66896,-0.0982 19.06377,-3.43593 24.88477,-9.04101 z m -27.26953,-4.33984 c -5.4081,0.58677 -10.7202,2.01165 -15.68164,4.27148 -1.62807,0.74155 -3.22829,1.56156 -4.80078,2.45898 5.79377,4.15252 13.79778,6.56793 22,6.65039 -0.31829,-4.60553 -0.81841,-9.06008 -1.51758,-13.38085 z m -20.48242,6.73046 c -1.16182,-0.8327 -2.23534,-1.7355 -3.20313,-2.70312 l -1.50195,-1.50391 -2.01563,-0.67187 c -22.71111,-7.57037 -42.81024,-14.27123 -61.13086,-20.089846 -4.25142,4.734426 -8.16863,9.816546 -11.73046,15.228516 18.15436,5.66856 38.18635,12.2997 61.01562,19.9043 v 5.52539 c 5.59342,-6.56644 11.81771,-11.83794 18.56641,-15.68946 z M 215,140.0293 c -7.09712,8.33171 -13.1779,18.74831 -18.02539,30.98828 -1.83534,4.63428 -2.2702,5.26195 -3.4375,4.97461 -0.73488,-0.1809 -14.3915,-3.39592 -30.34766,-7.14453 -15.95617,-3.7486 -29.08912,-6.87699 -29.18359,-6.95313 -0.0945,-0.0761 0.81221,-3.5524 2.01367,-7.72461 4.20337,-14.59665 10.25404,-27.85425 17.96485,-39.57031 C 102.98135,98.674317 66.793673,90.335823 25,89.287109 V 391.04492 c 44.68,0.19 106.01,16.81305 190,44.49805 z M 165.71484,99.371094 c 2.92478,-3.257065 6.00784,-6.349014 9.24414,-9.269532 C 132.33364,72.405432 109.64894,67.234844 76.433594,60.033203 A 965.564,965.564 0 0 0 39.5,71.742188 c 40.031724,2.579534 76.59763,11.870515 126.21484,27.628906 z m 9.24414,-9.269532 c 6.70226,2.782475 13.89645,5.873539 21.70313,9.332032 -5.31425,-5.1358 -10.63754,-9.862898 -15.93945,-14.22461 -1.9714,1.572168 -3.89315,3.204572 -5.76368,4.892578 z m 5.76368,-4.892578 c 5.4564,-4.351413 11.29477,-8.253686 17.49023,-11.68164 -14.7732,-11.991258 -29.91256,-22.118025 -50.00781,-31.039063 a 686.283,686.283 0 0 0 -26.65625,5.640625 c 18.06794,8.556195 38.44828,20.029842 59.17383,37.080078 z m 17.49023,-11.68164 C 206.6435,80.370386 214.95457,87.820744 224,96 219.61013,85.275928 214.25958,76.25406 208.21875,68.544922 c -3.4308,1.528753 -6.76676,3.190226 -10.00586,4.982422 z" />
</svg>
