<svg viewBox="0 0 512 512" width="512" height="512" xmlns="http://www.w3.org/2000/svg">
    <path style="fill:#ff0000" d="m 246.59766,56.964844 c -15.49875,0 -27.27989,1.899066 -41.87305,6.753906 -41.78509,13.90102 -71.74953,45.93994 -84.55664,90.41406 -1.20146,4.17221 -2.10622,7.64851 -2.01172,7.72461 0.0945,0.0761 13.22742,3.20648 29.18359,6.95508 15.95616,3.74861 29.61278,6.96363 30.34766,7.14453 1.1673,0.28734 1.60021,-0.34228 3.43555,-4.97656 9.5581,-24.13432 23.91359,-41.17454 41.39453,-49.13672 12.96219,-5.90399 28.31457,-6.1097 41.53125,-0.55664 14.10945,5.92816 26.9399,19.84245 30.91992,33.5332 1.58819,5.46319 1.01628,15.57767 -1.24414,22.01367 -2.84799,8.10898 -8.10463,17.56185 -15.29297,27.5254 l 67.58789,12.83203 c 6.25635,-10.14051 9.66811,-17.46107 12.34961,-25.51758 7.80965,-23.46397 5.23001,-46.80557 -8.22852,-74.45508 -2.38976,-4.90959 -6.07552,-11.50986 -8.1914,-14.66602 C 322.93188,74.185389 286.91186,56.964844 246.59766,56.964844 Z m 99.42187,160.226566 c -4.52749,7.33831 -10.54435,16.15289 -18.85156,27.79297 17.76491,4.94065 33.96616,21.22832 38.23242,41.21484 l -31.30078,-0.39844 -15.29883,-13.20117 -12.10156,13.09961 -5.72656,-0.0918 c -5.41794,10.45003 -8.9002,19.90555 -11.42383,30.24024 -0.2733,1.11919 -0.55724,2.39037 -0.83399,3.7207 L 288.19922,318.19922 256,316.59961 l -35.80078,1.80078 -10.95899,19.75 h 37.48829 c 30.66381,0 39.05962,-0.17235 39.23632,-0.79883 0.12364,-0.43836 0.55923,-3.72664 0.9668,-7.30859 0.29956,-2.63263 1.01538,-6.78142 1.7832,-10.47266 L 300.90039,352 l 36.29883,-31.40039 22.10156,1.09961 c -3.01894,32.72138 -30.50745,49.3214 -71.19531,57.37109 2.65091,3.81308 4.7906,7.9787 6.25586,12.32031 1.0058,2.98022 1.67338,6.62802 1.98437,10.42383 l 102.55469,-33.51367 -10.20117,-49.70117 c 0,0 126.70078,37.50078 97.30078,-247.199219 L 362.40039,220.30078 Z M 296.3457,401.81445 256,415 200.47656,396.85547 c -0.61359,3.1529 -0.93514,6.44005 -0.93164,9.83789 0.009,8.56469 1.48791,14.82715 5.17188,21.9082 7.47481,14.36753 20.98056,24.046 36.61132,26.23633 9.19682,1.28874 20.54101,-0.70773 28.99024,-5.10351 12.81669,-6.66798 21.42547,-17.63176 25.01758,-31.85938 1.15166,-4.56151 1.46773,-10.47092 1.00976,-16.06055 z m -95.86914,-4.95898 c 1.54914,-7.96012 4.9594,-15.06812 9.69727,-20.96485 -33.0669,-8.94977 -54.85441,-25.29429 -57.47461,-54.1914 l 20.80078,-1.09961 27,33.30078 8.74023,-15.75 h -1.52148 l 0.39258,-9.40625 c 0.6364,-15.20427 3.6518,-26.28318 11.58398,-42.56055 0.11748,-0.24107 0.23449,-0.48036 0.35157,-0.71875 l -14.7461,0.23438 -12.10156,-13.09961 -15.29883,13.20117 -31.30078,0.39844 c 8.26248,-38.70794 61.28946,-63.54182 83.74609,-18.94336 5.79778,-8.8707 13.68181,-19.22224 26.97852,-35.90625 8.1051,-10.16986 16.48137,-20.79815 18.61523,-23.61914 0.85441,-1.12954 1.68572,-2.25327 2.49219,-3.37109 L 256,200.09961 149.59961,220.30078 26,71.400391 C -3.386,356.10039 123.30078,318.59961 123.30078,318.59961 l -10.20117,49.70117 z M 230.3457,267.25586 c -4.07794,6.23933 -7.12472,11.74582 -10.29882,18.20898 l 16.65234,-0.26562 c -1.65085,-6.92948 -3.80543,-12.88292 -6.35352,-17.94336 z m -20.17187,108.63476 c 11.10299,3.0051 23.47842,5.17563 36.82617,6.70899 l 11.75977,-23.51758 c -18.91339,-4.24374 -37.43062,2.92473 -48.58594,16.80859 z m 48.58594,-16.80859 c 1.00878,0.22635 2.01735,0.48536 3.02734,0.77735 l -2.38672,-2.0586 z m 29.3457,19.98828 c -5.47636,-7.8772 -13.13357,-14.2512 -21.5332,-17.57422 -1.59166,-0.62968 -3.18776,-1.17541 -4.78321,-1.63671 l 23.01172,19.83984 c 1.11135,-0.20397 2.21215,-0.41276 3.30469,-0.62891 z m 12.86719,-93.46289 c 5.4832,-10.57592 12.94744,-22.16922 23.40234,-36.72265 0.95852,-1.33429 1.88964,-2.63465 2.79297,-3.90039 -20.5443,-5.71365 -43.17952,3.74809 -51.86719,40.21484 z M 44.240234,135.19922 129.30078,243.09961 72.609375,213.19922 c -10.37,67.8 36.089845,71.90039 36.089845,71.90039 L 106,297.30078 c 0,0 -74.249766,3.19844 -61.759766,-162.10156 z m 423.560546,0 C 480.20078,300.49922 406,297.30078 406,297.30078 l -2.69922,-12.20117 c 0,0 46.49961,-4.10039 36.09961,-71.90039 l -56.70117,29.90039 z" />
</svg>
