<svg viewBox="0 0 512 512" width="512" height="512" xmlns="http://www.w3.org/2000/svg">
    <path style="fill:#0000ff" d="M 256,27.519531 25,212.30078 v 41 l 107.10547,-85.69336 c -0.18645,0.61913 -0.36912,1.24119 -0.54883,1.86524 -1.20146,4.17221 -2.10817,7.64851 -2.01367,7.72461 0.0638,0.0514 6.06768,1.493 14.87109,3.57812 L 73,237.90039 V 487 h 94 c 0.1,-32.3 0.79922,-79.5 10.19922,-121 5.2,-22.7 12.90039,-43.9 25.40039,-60 10.16119,-13.06438 23.89916,-22.61772 40.74219,-25.82617 5.64297,-8.35366 13.26196,-18.29292 25.36914,-33.48438 3.77965,-4.74251 7.61817,-9.58564 10.85547,-13.68945 H 196.40039 A 14.73,25.03 74.96 0 1 178.30078,249.69922 14.73,25.03 74.96 0 1 148.40039,244 14.73,25.03 74.96 0 1 159.09961,225.59961 25.03,14.73 15.04 0 1 146.09961,206 25.03,14.73 15.04 0 1 163.90039,198.19922 25.03,14.73 15.04 0 1 176,200.40039 25.03,14.73 15.04 0 1 193.69922,215 h 99.39062 c 5.52325,-8.22965 9.62505,-16.00289 12.02149,-22.82617 2.26042,-6.436 2.83233,-16.55048 1.24414,-22.01367 -3.98002,-13.69075 -16.80852,-27.60505 -30.91797,-33.53321 -13.21668,-5.55306 -28.57101,-5.34735 -41.5332,0.55664 -17.48094,7.96218 -31.83448,25.0024 -41.39258,49.13672 -1.83534,4.63428 -2.2702,5.26195 -3.4375,4.97461 -0.73488,-0.1809 -14.3915,-3.39592 -30.34766,-7.14453 -5.18495,-1.21811 -10.07241,-2.37118 -14.31054,-3.375 L 256,91.519531 373.96289,185.87695 c 0.52362,-8.02399 -0.15213,-16.18464 -2.04492,-24.65234 L 260.8125,72.330078 c 39.16549,0.785388 73.95199,17.860281 92.52344,45.562502 2.11588,3.15616 5.80164,9.75447 8.1914,14.66406 4.89411,10.05456 8.35014,19.53951 10.39063,28.66797 L 487,253.30078 v -41 z M 373.96289,185.87695 c -0.46419,7.11328 -1.86972,14.12016 -4.20508,21.13672 -2.4492,7.35858 -5.50833,14.10131 -10.78711,22.94141 A 25.03,14.73 15.04 0 1 363.59961,244 25.03,14.73 15.04 0 1 344.5957,251.77734 c -2.64689,3.78844 -5.57716,7.91447 -8.83203,12.44532 -12.26744,17.07653 -20.41859,30.07889 -26.08203,42.14257 12.33397,16.05471 19.95837,37.106 25.11914,59.63477 9.4,41.5 10.09922,88.7 10.19922,121 h 94 V 237.90039 Z M 309.68164,306.36523 C 309.58789,306.24321 309.49468,306.12145 309.40039,306 296.80039,289.8 278.7,279 256,279 c -4.39373,0 -8.61567,0.40376 -12.6582,1.17383 -5.07422,7.5117 -8.55015,13.74123 -12.25782,21.34961 -7.93218,16.27737 -10.94758,27.35627 -11.58398,42.56054 l -0.39453,9.4043 h 39.01172 c 30.66381,0 39.05767,-0.17039 39.23437,-0.79687 0.12364,-0.43836 0.55923,-3.7286 0.9668,-7.31055 0.40758,-3.58196 1.58548,-9.96836 2.61719,-14.19336 2.08084,-8.5214 4.81368,-16.44584 8.74609,-24.82227 z m 34.91406,-54.58789 c 6.15897,-8.81518 10.78151,-15.80442 14.375,-21.82226 a 25.03,14.73 15.04 0 0 -6.07031,-4.35547 14.73,25.03 74.96 0 0 13,-19.59961 14.73,25.03 74.96 0 0 -17.80078,-7.80078 A 14.73,25.03 74.96 0 0 336,200.40039 14.73,25.03 74.96 0 0 318.30078,215 h -25.21094 c -1.77715,2.64796 -3.70179,5.34253 -5.76367,8.06836 -1.13877,1.50548 -4.05499,5.23523 -7.75976,9.93164 h 36.0332 a 25.03,14.73 15.04 0 0 18.09961,16.69922 25.03,14.73 15.04 0 0 10.89648,2.07812 z M 256,68.480469 l 4.81055,3.849609 c -0.93971,-0.01883 -1.88159,-0.02734 -2.82617,-0.02734 -2.39301,0 -4.6977,0.04612 -6.9375,0.140625 L 132.10547,167.60547 c 13.10134,-43.50397 42.80765,-74.841098 84.00586,-88.546876 12.33998,-4.105256 22.66884,-6.097675 34.93555,-6.615235 z" />
    <path style="fill:#0000ff" d="m 252.7155,470.17668 c -15.63076,-2.19033 -29.13658,-11.86883 -36.61139,-26.23636 -3.68397,-7.08105 -5.16231,-13.3445 -5.17114,-21.90919 -0.036,-34.95423 34.33417,-58.13075 67.02639,-45.19724 12.46561,4.93158 23.29755,16.58394 27.7898,29.89463 2.48692,7.3688 2.90863,18.82523 0.9749,26.48437 -3.59211,14.22762 -12.20164,25.19135 -25.01833,31.85932 -8.44923,4.39578 -19.79342,6.39321 -28.99023,5.10447 z" />
</svg>
