<svg viewBox="0 0 512 512" width="512" height="512" xmlns="http://www.w3.org/2000/svg">
    <path style="fill:#0000ff;" d="m 345.26562,22.486328 c -16.83411,-0.514604 -28.8752,1.793291 -40.80664,7.820313 -9.4026,4.74961 -15.37421,9.819558 -27.38086,23.251953 -1.2357,1.382437 -2.39858,2.673449 -3.5,3.882812 35.73924,2.858548 66.9726,19.420187 84.22071,45.148434 2.11588,3.15616 5.8036,9.75448 8.19336,14.66407 1.63331,3.3555 3.10618,6.6482 4.41992,9.88476 1.50057,-2.81408 3.60572,-5.56482 6.36719,-8.46094 17.28144,-18.12408 58.28369,-28.996404 99.26367,-26.320308 6.65034,0.434282 12.51152,0.951244 13.02539,1.148437 2.21406,0.849608 0.59881,-1.029335 -3.68945,-4.292968 -18.59263,-14.150148 -42.778,-23.93532 -69.33985,-28.056641 -4.73425,-0.734563 -9.20664,-1.447694 -9.93945,-1.583984 -0.88493,-0.164586 -2.01937,-1.602749 -3.37891,-4.28125 -5.31404,-10.469509 -15.1406,-19.758788 -27.16992,-25.6875 -10.32515,-5.088804 -17.25958,-6.719006 -30.28516,-7.117188 z m 25.14649,104.652342 c -3.49313,6.5508 -3.70732,13.44815 -1.27734,23.33789 0.90473,3.68219 2.07253,9.93722 2.5957,13.90039 1.60266,12.14061 1.08522,24.68518 -1.50586,37.51953 1.57427,-3.44554 2.85201,-6.74817 3.99609,-10.18554 6.86188,-20.61642 5.70293,-41.13944 -3.80859,-64.57227 z m -0.1875,74.75781 c -5.07601,11.10965 -13.241,23.69727 -29.99805,47.02344 -20.78534,28.93363 -29.75045,46.17098 -34.82812,66.96485 -1.03171,4.225 -2.20961,10.61139 -2.61719,14.19335 -0.0895,0.78673 -0.18099,1.55963 -0.26953,2.29102 1.1075,2.37052 2.30884,4.93204 3.48242,7.43164 3.36393,7.16482 6.11524,13.08771 6.11524,13.16211 0,0.0744 -2.36662,0.91801 -5.25977,1.875 -6.92129,2.28939 -14.07822,5.9946 -18.6543,9.51758 4.37326,2.56178 8.42239,5.93159 11.90821,9.85547 1.29501,-0.40769 2.53873,-0.77693 3.60742,-1.06641 5.61262,-1.52034 7.2269,-1.66997 17.96289,-1.66797 10.0829,0.002 12.50618,0.20042 16.68945,1.36328 11.08538,3.08148 21.2407,8.7465 30.01563,16.74414 l 4.30273,3.92188 v -3.77344 c 0,-2.07592 -0.56431,-5.98746 -1.25586,-8.6914 -4.11227,-16.07881 -16.51886,-26.53744 -34.50195,-29.0879 -2.55964,-0.36302 -4.69736,-0.72518 -4.75195,-0.80468 -0.0546,-0.0795 -4.48581,-9.61295 -9.84571,-21.18555 -5.35989,-11.5726 -10.25338,-22.05116 -10.875,-23.28516 l -1.13086,-2.24414 6.04883,-6.68164 c 29.46096,-32.55351 47.63393,-65.03837 53.85547,-95.85547 z m -70.12109,172.31446 c -2.81496,0.88619 -5.86875,1.95275 -7.86914,2.76758 -4.1708,1.69889 -5.29646,2.42742 -5.24219,3.39648 0.038,0.6786 1.85604,7.68967 4.03906,15.58008 3.34013,12.07278 7.10273,27.65816 10.23437,41.79687 4.65525,-5.57849 8.00397,-12.24535 9.92188,-19.84179 1.93373,-7.65914 1.51231,-19.11558 -0.97461,-26.48438 -2.12138,-6.28572 -5.65605,-12.20186 -10.10937,-17.21484 z m 1.1621,63.54101 c -4.0637,4.86964 -9.12213,8.90979 -15.0957,12.01758 -8.44923,4.39578 -19.79342,6.39421 -28.99023,5.10547 -15.63076,-2.19033 -29.13847,-11.8688 -36.61328,-26.23633 -3.68397,-7.08105 -5.1611,-13.34546 -5.16993,-21.91015 -0.0354,-34.36757 33.19,-57.34977 65.37891,-45.81836 -0.69621,-2.13647 -1.47979,-4.59481 -2.29297,-7.20508 l -4.61523,-14.81641 0.80469,-0.71484 c -3.58192,0.008 -7.59731,0.0117 -12.0918,0.0117 h -39.01172 l 0.39453,-9.4043 c 0.6364,-15.20427 3.65181,-26.28318 11.58399,-42.56055 7.8309,-16.06954 14.63286,-25.9822 37.62695,-54.83398 8.1051,-10.16986 16.48333,-20.8001 18.61719,-23.6211 8.47001,-11.19747 14.61764,-21.8758 17.78515,-30.89453 2.26042,-6.436 2.83038,-16.55048 1.24219,-22.01367 -3.98002,-13.69075 -16.80852,-27.60504 -30.91797,-33.5332 -13.21668,-5.55306 -28.57101,-5.34735 -41.5332,0.55664 -17.48094,7.96218 -31.83448,25.0024 -41.39258,49.13672 -1.83534,4.63428 -2.2702,5.26195 -3.4375,4.97461 -0.73488,-0.1809 -14.3915,-3.39592 -30.34766,-7.14453 -2.09571,-0.49235 -4.14204,-0.97399 -6.11718,-1.43946 -6.69919,40.04323 -5.33428,87.67307 4.32421,132.58594 1.49292,6.94225 6.29509,24.54036 7.72461,28.30664 0.46982,1.23781 -0.16629,3.1639 -3.36523,10.20117 -9.09768,20.01373 -19.91248,50.30953 -27.33789,76.58203 -3.30486,11.69318 -11.17486,42.85701 -12.08985,47.8711 l -0.41796,2.2832 10.05078,4.84375 c 27.33997,13.17963 51.06324,19.78217 80.50781,22.4043 5.82225,0.51849 27.34033,-0.21981 35.06836,-1.20313 11.06309,-1.40767 24.0129,-4.34519 35.00391,-7.9375 8.63593,-2.82258 20.1123,-7.31327 21.29687,-8.33398 0.90804,-0.78244 -2.22366,-17.62671 -6.57227,-37.25977 z M 157.07227,167.4082 c 1.9762,-11.8124 4.65364,-22.96394 8.02734,-33.1914 9.69019,-29.37606 23.49762,-48.040706 42.00195,-56.7793 7.54617,-3.563643 11.73106,-4.412045 21.80078,-4.421875 7.75399,-0.0076 9.90457,0.235157 16.37696,1.851563 l 7.45117,1.861328 3.70703,-2.78125 c 4.7729,-3.57988 9.42209,-8.030823 17.14062,-16.50586 C 269.91217,57.14819 266.19779,57 262.44727,57 c -15.49875,0 -27.27989,1.901017 -41.87305,6.755859 -41.78509,13.90102 -71.74758,45.939941 -84.55469,90.414061 -1.20146,4.17221 -2.10817,7.64851 -2.01367,7.72461 0.0821,0.0661 10.00336,2.4352 23.06641,5.51367 z m 117.59961,170.76563 c 20.85579,-0.0479 26.99373,-0.2505 27.14453,-0.78516 0.0965,-0.34208 0.38071,-2.42091 0.69531,-5.01953 -2.06702,-4.42431 -3.81173,-8.18149 -4.46875,-9.625 l -1.83594,-4.03125 -9.10351,8.25195 c -5.00785,4.53881 -10.03614,9.07826 -11.17188,10.08789 z m 6.10351,22.73633 c 1.47712,4.53284 2.56132,7.6157 2.70313,7.61914 0.20867,0.005 0.9257,-0.60342 1.59375,-1.35157 0.80842,-0.90535 1.86889,-1.85673 3.12304,-2.82226 -1.87091,-1.09595 -3.80221,-2.04437 -5.77343,-2.82422 -0.5487,-0.21707 -1.09702,-0.42425 -1.64649,-0.62109 z M 353.37695,44.724609 c 0.62253,-0.02218 1.25496,-0.01561 1.89649,0.02344 5.00669,0.304735 8.37665,1.734071 11.53125,4.888672 8.20156,8.201564 5.95353,22.484616 -4.35157,27.652343 -6.21152,3.114908 -12.43042,2.81882 -17.82617,-0.847656 -5.23345,-3.556188 -7.65513,-8.259339 -7.64453,-14.847656 0.0152,-9.461395 7.05668,-16.536482 16.39453,-16.869141 z" />
</svg>
