<svg viewBox="0 0 512 512" width="512" height="512" xmlns="http://www.w3.org/2000/svg">
    <path style="display:inline;fill:#0000ff" d="m 173.4375,56.625 c -24.197,0.254 -51.41,8.524 -76.125,23.875 C 56.0395,106.135 22.91,150.1845 21.5,204.8125 44.535,227.9655 58.746703,258.615 70.220703,291.125 107.9967,215.551 173.83,178.7543 224.5,181.9043 c -4.43416,-13.08898 -6.95671,-26.84124 -8.39062,-40.89844 -10.42313,9.22812 -19.15067,22.36826 -25.65626,38.79492 -1.83534,4.63428 -2.27019,5.2639 -3.4375,4.97656 -0.73488,-0.1809 -14.38954,-3.39592 -30.3457,-7.14453 -15.95617,-3.7486 -29.08912,-6.87894 -29.18359,-6.95508 -0.0945,-0.0761 0.81026,-3.55044 2.01172,-7.72265 12.80711,-44.47412 42.77155,-76.513048 84.55664,-90.414064 0.0507,-0.01688 0.10168,-0.03398 0.15234,-0.05078 -0.01,-2.190893 -0.0265,-4.375986 -0.0508,-6.552734 -10.255,-5.718 -22.52525,-8.79 -35.90625,-9.25 -1.585,-0.054 -3.1995,-0.0805 -4.8125,-0.0625 z m 40.76953,15.865234 c 0.10292,22.644865 -0.39716,45.972706 1.90235,68.515626 4.8907,-4.32999 10.15547,-7.797 15.73828,-10.33984 11.77864,-5.36492 25.53132,-6.02447 37.86132,-1.9336 V 66.464844 c -4.52324,-0.45032 -9.12378,-0.679688 -13.78125,-0.679688 -15.44487,0 -27.19767,1.887568 -41.7207,6.705078 z M 216.21875,200.625 C 179.22575,202.455 128.584,229.18775 95,284.71875 c 25.173,56.788 58.6815,115.636 94.6875,155.25 6.77528,-2.38625 14.07175,-5.20098 21.75977,-8.39063 -1.79947,-4.93815 -2.56592,-9.9062 -2.57227,-16.06445 -0.0337,-32.7508 30.13875,-55.16196 60.83398,-47.21875 v -21.33984 c -3.96435,0.011 -8.493,0.0156 -13.65039,0.0156 h -39.00976 l 0.39258,-9.40625 c 0.61564,-14.70841 3.45837,-25.55433 10.82421,-40.98242 l -8.79492,-1.70898 c 2.4,-12.312 8.4593,-24.39175 15.7793,-34.84375 5.023,-7.17 10.5635,-13.56855 16.4375,-18.56055 -5.982,-4.3 -11.5445,-9.32925 -16.6875,-15.03125 -19.934,9.052 -40.1935,31.39725 -43.3125,50.15625 L 173.25,273.5293 c 4.4,-26.468 25.8095,-49.9913 49.9375,-62.1543 -2.39,-3.44 -4.69575,-7.03 -6.96875,-10.75 z m 12.04687,95.95703 9.54688,1.85352 c 1.677,-8.593 6.606,-18.9145 12.75,-27.6875 6.145,-8.773 13.69245,-16.0323 18.81445,-19.0293 l -0.375,-0.65625 c 0.23494,0.0946 0.47114,0.18835 0.70703,0.28125 v -15.01172 c -1.01376,1.27557 -2.03656,2.56041 -3.05468,3.83789 -22.99409,28.85178 -29.798,38.7664 -37.62891,54.83594 -0.25869,0.53085 -0.51144,1.05606 -0.75977,1.57617 z m -16.81835,134.99609 c 0.70317,1.92967 1.56451,3.85417 2.59961,5.84376 1.98619,3.81771 4.39754,7.30515 7.1621,10.4082 15.24052,-6.3721 31.65329,-14.04156 48.5,-22.67969 V 403.9668 c -20.44229,10.77485 -40.40736,20.20384 -58.26171,27.61132 z m 9.76171,16.25196 c -11.61993,4.85832 -22.55839,8.96241 -32.49023,12.16797 l 12.3457,17.875 c 13.03218,-4.78572 26.62376,-10.28651 40.57813,-16.37891 -7.84475,-2.70661 -14.85661,-7.40424 -20.4336,-13.66406 z m 20.4336,13.66406 c 2.90126,1.001 5.9169,1.72984 9.01562,2.16406 5.90943,0.82809 12.70586,0.30004 19.05078,-1.34961 v -13.625 c -9.47531,4.50533 -18.8503,8.78685 -28.0664,12.81055 z" />
    <path style="display:inline;fill:#ff0000" d="m 279.27344,67.763672 v 65.320308 c 11.67094,6.88872 21.6088,18.80597 25.02539,30.5586 1.58819,5.46319 1.01628,15.57572 -1.24414,22.01172 -3.16751,9.01873 -9.31515,19.69901 -17.78516,30.89648 -0.95108,1.25734 -3.14155,4.06595 -5.99609,7.69336 v 30.18359 c 7.8436,1.9505 16.20001,2.71775 25.10351,2.32032 -12.41673,26.26546 -17.93874,57.51137 -12.86523,89.92578 2.65997,-0.1197 3.72154,-0.2814 3.7832,-0.5 0.12364,-0.43836 0.55923,-3.7286 0.9668,-7.31055 0.40758,-3.58196 1.58352,-9.96836 2.61523,-14.19336 2.81534,-11.52927 6.82723,-21.96597 13.38477,-33.9082 7.69301,-31.46604 25.96265,-57.86428 47.91016,-73.0293 3.37236,-6.21556 5.6318,-11.54317 7.52734,-17.23828 7.80965,-23.46397 5.23,-46.80557 -8.22852,-74.45508 -2.38976,-4.90959 -6.07552,-11.50985 -8.1914,-14.66601 C 336.02773,88.622947 309.84117,73.042156 279.27344,67.763672 Z m 80.89844,149.968748 c -5.22609,9.63213 -13.12325,21.39816 -26.4668,39.97266 -9.2608,12.89122 -16.17391,23.4602 -21.44336,33.05664 -6.96129,28.47314 -5.26312,61.09605 10.20703,93.30078 l 7.25,7.25 -10.25,6.15625 c -4.7765,2.87063 -9.5762,5.69051 -14.38086,8.45117 1.15866,6.78617 1.06187,14.89854 -0.42187,20.77539 -0.47562,1.8838 -1.03785,3.70959 -1.6875,5.47657 67.87429,-35.05868 137.48956,-79.18 188.92773,-120.07813 -13.427,-54.603 -34.91355,-85.3 -57.06055,-99 -10.753,-6.654 -21.79445,-9.70245 -32.81445,-9.68945 -0.733,0.002 -1.4828,0.005 -2.2168,0.0332 -11.748,0.45 -23.438,4.3695 -34.625,11.0625 -1.69173,1.01207 -3.36463,2.09028 -5.01757,3.23242 z m -57.19336,214.43946 c -7.93592,4.09908 -15.84862,8.07459 -23.70508,11.90624 v 14.66993 c 0.12585,-0.0638 0.25038,-0.12853 0.375,-0.19336 11.1197,-5.7851 19.07316,-14.80456 23.33008,-26.38281 z m 2.10937,-26.25196 c -0.35139,-2.05806 -0.81777,-3.99426 -1.39648,-5.70898 -1.39396,-4.13035 -3.39883,-8.10199 -5.87305,-11.76172 -6.17261,3.56509 -12.36837,7.03726 -18.54492,10.39648 v 21.32032 c 8.56138,-4.53238 17.19696,-9.29465 25.81445,-14.2461 z m -7.26953,-17.4707 c 1.656,-0.95645 3.31121,-1.91914 4.96289,-2.88867 -5.57791,-12.98711 -9.25706,-26.02912 -11.26953,-38.88672 -2.50121,0.11255 -6.41556,0.18651 -12.23828,0.23242 v 24.92578 c 7.25681,3.66021 13.77388,9.56013 18.54492,16.61719 z" />
</svg>
